<svg version="1.1" id="Capa_1" xmlns="http://www.w3.org/2000/svg" x="0" y="0" viewBox="-140.24 501 480.372 480.373" xml:space="preserve"><circle fill="#ffbf13" cx="285.897" cy="555.236" r="41.292"/><path fill="#ffbf13" d="M177.426 919.389c-55.538 0-100.724-45.186-100.724-100.723 0-55.538 45.186-100.724 100.724-100.724s100.723 45.186 100.723 100.724c0 55.537-45.186 100.723-100.723 100.723zm0-162.707c-34.175 0-61.984 27.809-61.984 61.984s27.809 61.983 61.984 61.983c34.174 0 61.983-27.808 61.983-61.983s-27.809-61.984-61.983-61.984zm0 0"/><path fill="393939" d="M200.669 810.918h15.496v15.496h-15.496zm-61.983 0h15.496v15.496h-15.496zm30.992 0h15.496v15.496h-15.496z"/><path fill="393939" d="M266.567 865.4c-2.456 4.657-5.301 9.065-8.429 13.257l60.177 54.018a19.019 19.019 0 016.321 14.165c0 10.492-8.544 19.037-19.036 19.037a19.04 19.04 0 01-14.17-6.321l-54.013-60.172c-4.192 3.132-8.6 5.972-13.257 8.428l7.501 8.354v18.719H76.702v7.748c0 12.817-10.426 23.244-23.244 23.244-12.817 0-23.243-10.427-23.243-23.244v-7.748h-154.96V733.438h15.497v185.95H22.467c12.717 0 23.924-6.244 30.991-15.738 7.068 9.494 18.275 15.739 30.992 15.739h92.976c-19.643 0-37.918-5.735-53.429-15.496H84.45c-12.817 0-23.244-10.426-23.244-23.244V717.135c2.936-4.67 5.569-9.544 7.722-14.688H200.67v18.31c5.332 1.26 10.527 2.87 15.496 4.96V686.95H73.887c1.776-7.476 2.815-15.234 2.815-23.244 0-26.078-10.048-49.796-26.366-67.704l34.795-36.964c4.424 2.431 9.423 3.945 14.815 3.945 6.26 0 12.08-1.897 16.954-5.105l40.965 37.242c-2.27 4.317-3.683 9.145-3.683 14.35 0 17.09 13.902 30.992 30.991 30.992 17.09 0 30.992-13.902 30.992-30.992 0-2.548-.394-4.983-.979-7.354l27.2-14.643c9.891 13.31 25.69 21.997 43.51 21.997 29.897 0 54.236-24.339 54.236-54.235S315.793 501 285.897 501c-29.897 0-54.236 24.339-54.236 54.236 0 6.536 1.226 12.781 3.355 18.592l-27.189 14.644c-5.665-6.108-13.69-9.993-22.654-9.993-6.269 0-12.08 1.897-16.958 5.105l-40.964-37.242c2.274-4.308 3.687-9.145 3.687-14.35 0-17.09-13.903-30.992-30.992-30.992-17.09 0-30.992 13.902-30.992 30.992 0 6.068 1.821 11.693 4.843 16.48L39.092 585.33C21.806 571.382-.137 562.984-24.02 562.984c-55.537 0-100.723 45.186-100.723 100.723 0 19.642 5.734 37.917 15.496 53.428v.807h-30.992v232.439H15.5c3.603 17.66 19.25 30.991 37.958 30.991 18.71 0 34.361-13.331 37.959-30.991h155.74v-16.954l32.738 36.464a34.505 34.505 0 0025.705 11.481c19.047 0 34.532-15.485 34.532-34.532 0-9.812-4.181-19.179-11.465-25.701l-62.1-55.739zm19.33-348.904c21.362 0 38.74 17.377 38.74 38.74s-17.378 38.74-38.74 38.74c-21.363 0-38.74-17.378-38.74-38.74s17.377-38.74 38.74-38.74zm-309.918 61.983c8.328 0 17.2 11.829 23.315 30.992h-46.635c6.12-19.163 14.992-30.992 23.32-30.992zm-23.315 139.463H-.7c-6.114 19.164-14.992 30.992-23.31 30.992-8.324 0-17.21-11.828-23.325-30.992zm-5.462 25.888c-14.517-5.242-27.255-14.21-36.92-25.888h26.135c2.86 10.034 6.492 18.765 10.785 25.888zm1.513-41.383c-1.892-9.368-3.162-19.778-3.566-30.992h61.66c-.404 11.214-1.685 21.624-3.566 30.992h-54.528zm66.816 15.495h26.134C32.01 729.62 19.268 738.588 4.756 743.83c4.292-7.123 7.925-15.854 10.775-25.888zm36.268-15.495H19.138c1.74-9.585 2.81-19.995 3.167-30.992h38.513c-1.004 11.077-4.166 21.534-9.019 30.992zm-29.504-46.488c-.353-10.997-1.422-21.408-3.168-30.992h32.667c4.848 9.458 8.01 19.915 9.019 30.992H22.295zM15.53 609.47c-2.85-10.033-6.483-18.764-10.775-25.887 14.517 5.231 27.255 14.21 36.909 25.887H15.53zM3.243 624.967c1.891 9.367 3.162 19.778 3.566 30.992h-61.66c.404-11.214 1.685-21.625 3.566-30.992H3.243zm-73.58 30.992h-38.518a84.477 84.477 0 019.02-30.992h32.666c-1.746 9.584-2.82 19.995-3.168 30.992zm0 15.496c.353 10.997 1.422 21.407 3.168 30.992h-32.672c-4.853-9.458-8.015-19.915-9.019-30.992h38.523zm92.804 232.438h-116.22V736.217c18.114 17.428 42.67 28.213 69.732 28.213s51.618-10.785 69.731-28.213V880.65c0 12.818-10.426 23.244-23.243 23.244zm162.706-309.918c8.545 0 15.496 6.952 15.496 15.496 0 8.545-6.95 15.496-15.496 15.496-8.544 0-15.495-6.951-15.495-15.496 0-8.544 6.95-15.496 15.495-15.496zm-85.227-77.48c8.545 0 15.496 6.952 15.496 15.497 0 8.544-6.951 15.496-15.496 15.496-8.545 0-15.496-6.952-15.496-15.496 0-8.545 6.951-15.496 15.496-15.496zm-152.744 67.089c-4.283 7.123-7.925 15.854-10.775 25.887h-26.144c9.664-11.677 22.402-20.645 36.919-25.887zm0 0"/><path fill="393939" d="M107.694 818.666c0 38.451 31.28 69.731 69.732 69.731 38.451 0 69.731-31.28 69.731-69.731 0-38.452-31.28-69.732-69.731-69.732-38.452 0-69.732 31.28-69.732 69.732zm123.967 0c0 29.896-24.339 54.235-54.235 54.235s-54.236-24.339-54.236-54.235c0-29.897 24.339-54.236 54.236-54.236s54.235 24.339 54.235 54.236zm77.479 123.967c0 4.277-3.47 7.748-7.747 7.748s-7.748-3.471-7.748-7.748 3.47-7.748 7.748-7.748 7.748 3.47 7.748 7.748zM285.897 578.48c12.817 0 23.244-10.427 23.244-23.244s-10.427-23.244-23.244-23.244c-12.818 0-23.244 10.426-23.244 23.244s10.426 23.243 23.244 23.243zm0-30.992a7.75 7.75 0 017.748 7.748c0 4.277-3.471 7.748-7.748 7.748s-7.748-3.471-7.748-7.748a7.75 7.75 0 017.748-7.748zm0 0"/><path fill="#ffbf13" d="M-78.257 826.414H30.215v-46.488H-78.257v46.488zm15.496-30.992h77.48v15.496h-77.48v-15.496zm-15.496 46.487H30.214v15.496H-78.257zm92.976 30.992h15.496v15.496H14.719zm-92.976 0H-.778v15.496h-77.479z"/></svg>
