<svg version="1.1" id="Capa_1" xmlns="http://www.w3.org/2000/svg" x="0" y="0" viewBox="0 0 384 536.003" xml:space="preserve"><path fill="#ffbf13" d="M161.42 382.145H69.647v-80.3h91.771v80.3z"/><path fill="#393939" d="M179.457 312.245l-10.947-10.947-52.976 52.976-15.127-15.127-10.947 10.947 26.074 26.074 63.923-63.923zm150.895 14.266h-128.38v-15.484h128.38v15.484zm-30.967 30.968h-97.413v-15.484h97.413v15.484z"/><path fill="#ffbf13" d="M161.42 482.145H69.647v-80.3h91.771v80.3z"/><path fill="#393939" d="M179.457 412.245l-10.947-10.947-52.976 52.976-15.127-15.127-10.947 10.947 26.074 26.074 63.923-63.923zm150.895 14.266h-128.38v-15.484h128.38v15.484zm-30.967 30.968h-97.413v-15.484h97.413v15.484z"/><path fill="#ffbf13" d="M231.75 42.904h-79.491c0-16.457 13.34-29.808 29.81-29.808h19.872c16.457 0 29.809 13.351 29.809 29.808zM273.345 159.5l-30-24.25h-98.5l-35 23.25-8.25 51 10.41 19.75h164.09l7.25-26.5-10-43.25zm-61.75 40.25l-44.75-2.25-14.75-57.25h78.25l-18.75 59.5z"/><path fill="#393939" d="M383.93 144.003a8.02 8.02 0 00-2.27-5.66l-80-80a7.935 7.935 0 00-5.66-2.27v-.07h-16.95v16H288v64c0 8.83 7.16 16 16 16h64v368H16v-448h88.05v-16H16c-8.84 0-16 7.16-16 16v448c0 8.83 7.16 16 16 16h352c8.84 0 16-7.17 16-16v-376h-.07zm-79.93-8v-52.69l52.69 52.69H304z"/><path fill="#393939" d="M120 240h144c13.254 0 24-10.746 24-24v-32c-.035-30.914-25.086-55.965-56-56h-16v-19.39A40.002 40.002 0 00240 72V40c-.027-22.082-17.918-39.973-40-40h-16c-22.082.027-39.972 17.918-40 40v32a40.002 40.002 0 0024 36.61V128h-16c-30.914.035-55.965 25.086-56 56v32c0 13.254 10.746 24 24 24zm64-224h16c13.254 0 24 10.746 24 24h-12.687l-5.656-5.656a8.01 8.01 0 00-8.184-1.938L174.703 40H160c0-13.254 10.746-24 24-24zm-24 56V56h16c.86 0 1.711-.137 2.528-.406l19.312-6.403 4.504 4.504A7.984 7.984 0 00208 56h16v16c0 13.254-10.746 24-24 24h-16c-13.254 0-24-10.746-24-24zm24 40h16v16h-16v-16zm37.754 32l-12 48h-35.508l-12-48h59.508zM112 184c.055-19.688 14.442-36.402 33.903-39.383l14.336 57.32A8.001 8.001 0 00168 208h48c3.672 0 6.871-2.5 7.762-6.063l14.336-57.32c19.46 2.98 33.848 19.696 33.902 39.383v32a8 8 0 01-8 8H120a8 8 0 01-8-8v-32z"/></svg>
