<svg version="1.1" id="Capa_1" xmlns="http://www.w3.org/2000/svg" x="0" y="0" viewBox="0 0 516.411 516.313" xml:space="preserve"><path fill="#ffbf13" d="M309.665 201.113c-13.905 3.957-31.12 7.02-51.46 7.02s-37.562-3.063-51.468-7.02c-19.98 15.752-31.824 39.613-31.824 65.324 0 45.93 37.364 83.292 83.292 83.292s83.292-37.363 83.292-83.292c0-25.72-11.843-49.58-31.832-65.324z"/><path fill="none" d="M249.876 254.928v23.023l23.023-11.514zm231.884 229.22l-40.312-11.527v-24.024l4.14-2.407c7.837-4.563 12.518-12.6 12.518-21.498v-14.926c0-13.815-9.989-25.513-22.73-26.618-7.17-.606-13.917 1.675-19.14 6.462a25.062 25.062 0 00-8.105 18.423v16.659c0 8.898 4.68 16.935 12.518 21.498l4.14 2.407v24.024l-40.312 11.527c-7.813 2.224-13.885 8.137-16.537 15.507h130.357c-2.652-7.37-8.724-13.283-16.537-15.507zm-65.3-251.028c8.837 0 16.085-6.902 16.618-15.609l-14.576-51.025h-4.092l-14.576 51.025c.541 8.707 7.789 15.61 16.626 15.61zM131.934 484.148L91.62 472.62v-24.024l4.14-2.407c7.838-4.563 12.519-12.6 12.519-21.498v-14.926c0-13.815-9.99-25.513-22.73-26.618-7.163-.606-13.918 1.675-19.14 6.462a25.062 25.062 0 00-8.106 18.423v16.659c0 8.898 4.681 16.935 12.518 21.498l4.14 2.407v24.024L34.65 484.147c-7.813 2.224-13.885 8.137-16.537 15.507H148.47c-2.652-7.37-8.724-13.283-16.536-15.507zm126.271-317.662a39.676 39.676 0 01-19.688-5.23l-63.604-36.339v53.742c9.488 5.787 38.856 21.144 83.292 21.144 44.42 0 73.78-15.348 83.292-21.144v-53.742l-63.604 36.34a39.676 39.676 0 01-19.688 5.23zm48.642 317.662l-40.313-11.527v-24.024l4.141-2.407c7.837-4.563 12.518-12.6 12.518-21.498v-14.934c0-13.816-9.989-25.505-22.73-26.61-7.163-.606-13.918 1.675-19.14 6.462a25.062 25.062 0 00-8.105 18.423v16.659c0 8.898 4.68 16.935 12.517 21.498l4.141 2.407v24.024l-40.312 11.527c-7.813 2.224-13.885 8.137-16.537 15.507h130.356c-2.651-7.37-8.723-13.283-16.536-15.507z"/><path fill="#ffbf13" d="M483.094 83.194h16.658v8.329h-16.658zm-466.436 0h16.658v8.329H16.658z"/><path fill="none" d="M366.359 74.865l-96.725-55.27a23.091 23.091 0 00-11.429-3.034c-3.998 0-7.955 1.05-11.428 3.034l-102.15 58.37a6.057 6.057 0 00-3.03 5.23 6.067 6.067 0 003.03 5.234l102.15 58.37c6.946 3.972 15.91 3.972 22.857 0l96.725-55.275H258.205V74.865H366.36z"/><path fill="#ffbf13" d="M136.367 63.506l52.998-30.287H16.658C7.471 33.22 0 40.695 0 49.878v24.987c0 9.187 7.471 16.659 16.658 16.659v-8.33h16.659v8.33h93.222a22.617 22.617 0 01-1.601-8.33c0-8.118 4.38-15.666 11.429-19.688zM499.752 33.22H327.04l53.005 30.286c4.507 2.575 7.756 6.67 9.63 11.36h10.128c10.854 0 20.114 6.965 23.554 16.658h59.738v-8.33h16.658v8.33c9.187 0 16.659-7.472 16.659-16.659V49.878c0-9.183-7.472-16.659-16.659-16.659z"/><path d="M358.156 266.437h108.28v16.658h-108.28zM311.43 468.123l-28.237-8.064v-2.226c10.38-7.82 16.658-20.123 16.658-33.141v-14.934c0-22.373-16.666-41.361-37.949-43.211-11.668-1.014-23.263 2.923-31.832 10.776-8.59 7.882-13.51 19.074-13.51 30.71v16.659c0 13.018 6.278 25.321 16.658 33.141v2.226l-28.237 8.064c-17.708 5.063-30.068 21.454-30.068 39.86v8.33h166.584v-8.33c0-18.406-12.36-34.797-30.067-39.86zm-118.403 31.532c2.652-7.37 8.724-13.283 16.537-15.507l40.312-11.527v-24.024l-4.14-2.407c-7.837-4.563-12.518-12.6-12.518-21.498v-16.659a25.062 25.062 0 018.105-18.423c5.222-4.787 11.977-7.068 19.14-6.462 12.741 1.105 22.73 12.794 22.73 26.61v14.934c0 8.898-4.681 16.935-12.518 21.498l-4.14 2.407v24.024l40.312 11.527c7.813 2.224 13.885 8.137 16.536 15.507H193.027zm293.316-31.532l-28.237-8.064v-2.226c10.38-7.82 16.658-20.123 16.658-33.141v-14.926c0-22.38-16.666-41.37-37.948-43.22-11.645-1.013-23.264 2.924-31.832 10.777-8.59 7.882-13.512 19.074-13.512 30.71v16.659c0 13.018 6.28 25.321 16.659 33.141v2.226l-28.237 8.064c-17.708 5.063-30.068 21.454-30.068 39.86v8.33h166.585v-8.33c0-18.406-12.36-34.797-30.068-39.86zM367.94 499.655c2.652-7.37 8.724-13.283 16.537-15.507l40.312-11.527v-24.024l-4.14-2.407c-7.837-4.563-12.518-12.6-12.518-21.498v-16.659a25.062 25.062 0 018.105-18.423c5.223-4.787 11.97-7.068 19.14-6.462 12.741 1.105 22.73 12.803 22.73 26.618v14.926c0 8.898-4.68 16.935-12.518 21.498l-4.14 2.407v24.024l40.312 11.527c7.813 2.224 13.885 8.137 16.537 15.507H367.94zm-231.423-31.532l-28.237-8.064v-2.226c10.379-7.82 16.658-20.123 16.658-33.141v-14.926c0-22.38-16.667-41.37-37.949-43.22-11.652-1.013-23.263 2.924-31.832 10.777-8.59 7.882-13.511 19.074-13.511 30.71v16.659c0 13.018 6.28 25.321 16.658 33.141v2.226l-28.237 8.064C12.36 473.186 0 489.577 0 507.983v8.33h166.584v-8.33c0-18.406-12.36-34.797-30.067-39.86zM18.114 499.655c2.652-7.37 8.724-13.283 16.537-15.507l40.312-11.527v-24.024l-4.14-2.407c-7.838-4.563-12.519-12.6-12.519-21.498v-16.659a25.062 25.062 0 018.106-18.423c5.222-4.787 11.977-7.068 19.14-6.462 12.74 1.105 22.73 12.803 22.73 26.618v14.926c0 8.898-4.681 16.935-12.518 21.498l-4.14 2.407v24.024l40.312 11.527c7.812 2.224 13.884 8.137 16.536 15.507H18.114zm464.98-408.131h16.658v258.205h-16.658zm-466.436 0h16.658v258.205H16.658zm216.56 213.379l76.927-38.466-76.927-38.461v76.927zm16.658-49.975l23.023 11.509-23.023 11.514v-23.023zM49.975 108.182h58.304v16.659H49.975zm0 33.317h91.621v16.658H49.975zm0 33.317h91.621v16.658H49.975zm0 33.317h91.621v16.658H49.975zm308.181 124.938h108.28v16.658h-108.28zm0-33.317h108.28v16.658h-108.28zM136.367 102.887l21.888 12.51v71.912l3.33 2.502c1.453 1.09 36.234 26.65 96.62 26.65 60.387 0 95.168-25.56 96.62-26.65l3.33-2.502v-71.912l21.889-12.51c4.514-2.574 7.756-6.674 9.63-11.363h10.128c4.587 0 8.329 3.733 8.329 8.329v49.975h-6.28l-18.383 64.352-.325 2.282c0 18.375 14.943 33.317 33.317 33.317s33.317-14.942 33.317-33.317l-18.709-66.634h-6.279V99.853c0-2.92-.508-5.722-1.433-8.33-3.44-9.692-12.7-16.658-23.554-16.658h-10.128c-1.874-4.689-5.123-8.784-9.63-11.359L327.039 33.22 277.893 5.137c-11.969-6.85-27.42-6.85-39.388 0l-49.14 28.082-52.998 30.287c-7.049 4.022-11.429 11.57-11.429 19.688 0 2.896.566 5.714 1.601 8.33 1.87 4.722 5.292 8.774 9.828 11.363zm296.71 114.624c-.532 8.707-7.78 15.61-16.617 15.61s-16.085-6.903-16.626-15.61l14.576-51.025h4.092l14.576 51.025zm-91.58-38.852c-9.513 5.796-38.872 21.144-83.292 21.144-44.436 0-73.804-15.357-83.292-21.144v-53.742l63.604 36.34a39.676 39.676 0 0039.376 0l63.604-36.34v53.742zm-94.72-159.064a23.091 23.091 0 0111.428-3.034c3.998 0 7.956 1.05 11.429 3.034l96.725 55.27H258.205v16.659H366.36l-96.725 55.274c-6.947 3.973-15.91 3.973-22.857 0L144.627 88.43a6.067 6.067 0 01-3.03-5.235 6.057 6.057 0 013.03-5.23l102.15-58.37z" fill="#393939"/></svg>
