<svg version="1.1" id="Capa_1" xmlns="http://www.w3.org/2000/svg" x="0" y="0" viewBox="3452.676 467.093 518.558 524.354" xml:space="preserve"><path fill="#ffbf13" d="M3710.999 872.22v76.64c0 13.358-10.832 24.19-24.19 24.19H3509.4c-13.358 0-24.19-10.832-24.19-24.19v-76.64c0-13.359 10.832-24.19 24.19-24.19h11.454l58.19-108.856a8.06 8.06 0 019.08-3.79 8.064 8.064 0 015.976 7.824V848.03h92.71c13.358 0 24.19 10.832 24.19 24.19z"/><circle fill="#ffbf13" cx="3632.315" cy="586.931" r="39.327"/><path fill="#393939" d="M3615.21 732.346c0 4.72 3.83 8.55 8.555 8.55h68.43a8.551 8.551 0 008.551-8.55v-68.429c-.076-19.315-13.088-36.18-31.748-41.155 19.726-20.151 19.496-52.446-.518-72.318-20.01-19.867-52.309-19.867-72.318 0-20.014 19.872-20.244 52.167-.518 72.318-18.665 4.975-31.677 21.84-31.757 41.155v29.404c0 4.725 3.831 8.555 8.556 8.555s8.55-3.83 8.55-8.555v-29.404c0-14.174 11.492-25.661 25.662-25.661h51.324c14.177 0 25.66 11.487 25.66 25.661v59.874h-59.874a8.556 8.556 0 00-8.555 8.555zm17.106-179.63c18.899 0 34.218 15.323 34.218 34.217s-15.32 34.212-34.218 34.212c-18.893 0-34.212-15.318-34.212-34.212s15.32-34.216 34.212-34.216zm0 0"/><path fill="#393939" d="M3657.979 681.023c4.724 0 8.555-3.83 8.555-8.555s-3.83-8.55-8.555-8.55h-17.108c-4.723 0-8.555 3.825-8.555 8.55s3.832 8.555 8.555 8.555h17.108zm0 0"/><path fill="#393939" d="M3770.79 761.09l46.853 46.853 12.2-11.97-48.683-48.683c54.3-80.38 34.97-189.35-43.65-246.16-78.63-56.81-188.16-40.93-247.42 35.87-59.25 76.8-46.83 186.77 28.06 248.42 3.65 3 9.04 2.48 12.05-1.17 3.01-3.64 2.48-9.03-1.16-12.03-68.9-56.44-79.64-157.77-24.08-227.37 55.54-69.61 156.73-81.63 227.04-26.96 70.31 54.66 83.6 155.68 29.84 226.68-2.05 2.72-4.14 5.4-6.36 7.97-.19.23-.4.44-.6.67a161.433 161.433 0 01-16.07 16.07c-.26.23-.51.49-.78.72a161.27 161.27 0 01-7.87 6.27 161.54 161.54 0 01-97.84 33.06c-2.71 0-5.4-.14-8.08-.28-4.73-.27-8.77 3.36-9.03 8.08-.26 4.72 3.36 8.76 8.09 9.03 3 .16 5.98.3 9.02.3 35.81.04 70.81-10.69 100.45-30.79l48.243 48.243 12.22-11.99-46.633-46.643c8.81-7.28 16.91-15.38 24.19-24.19zm-241.115 159.437c-4.724 0-8.555 3.826-8.555 8.55s3.83 8.556 8.555 8.556h51.319c4.724 0 8.555-3.83 8.555-8.555s-3.83-8.551-8.555-8.551h-51.319zm0 0"/><path fill="#393939" d="M3692.195 843.543h-94.091V732.346a8.547 8.547 0 00-6.34-8.292 8.55 8.55 0 00-9.638 4.014l-65.969 115.475h-12.143c-14.174 0-25.661 11.488-25.661 25.661v85.535c0 14.174 11.487 25.662 25.66 25.662h188.182c14.174 0 25.661-11.488 25.661-25.662v-78.746a8.556 8.556 0 00-17.11 0v78.746c0 4.725-3.826 8.555-8.55 8.555h-188.182a8.556 8.556 0 01-8.555-8.555v-85.535a8.556 8.556 0 018.555-8.555h17.106a8.554 8.554 0 007.427-4.277l52.447-91.815v87.541c0 4.72 3.83 8.551 8.555 8.551h102.646a8.551 8.551 0 018.551 8.555v17.106a8.556 8.556 0 0017.11 0v-17.106c0-14.173-11.487-25.661-25.66-25.661zm0 0"/><path fill="#393939" d="M3615.21 894.866a8.556 8.556 0 00-8.555-8.556h-59.874c-4.724 0-8.555 3.831-8.555 8.556s3.83 8.55 8.555 8.55h59.874c4.724 0 8.555-3.826 8.555-8.55zm68.43 0a8.556 8.556 0 00-8.555-8.556h-34.214c-4.723 0-8.555 3.831-8.555 8.556s3.832 8.55 8.555 8.55h34.214c4.724 0 8.555-3.826 8.555-8.55zm-68.43 42.767h34.217c4.72 0 8.552-3.83 8.552-8.555s-3.831-8.551-8.552-8.551h-34.217c-4.724 0-8.555 3.826-8.555 8.55s3.83 8.556 8.555 8.556zm213.842-402.023h76.986c4.72 0 8.55-3.83 8.55-8.555 0-4.72-3.83-8.552-8.55-8.552h-76.986c-4.724 0-8.555 3.832-8.555 8.552a8.556 8.556 0 008.555 8.556zm0 42.768h76.986a8.554 8.554 0 000-17.106h-76.986a8.556 8.556 0 00-8.555 8.555c0 4.72 3.83 8.551 8.555 8.551zm76.986 25.662h-42.773c-4.72 0-8.551 3.83-8.551 8.554s3.83 8.551 8.55 8.551h42.774c4.72 0 8.55-3.826 8.55-8.55s-3.83-8.556-8.55-8.556zm0 42.767h-42.773c-4.72 0-8.551 3.83-8.551 8.555s3.83 8.555 8.55 8.555h42.774c4.72 0 8.55-3.83 8.55-8.555s-3.83-8.555-8.55-8.555zm-12.376 344.639c-4.105 0-8.21-1.562-11.337-4.687l-114.957-114.957c-6.25-6.253-6.25-16.425 0-22.676l61.546-61.546c6.252-6.25 16.424-6.252 22.676 0l114.956 114.956c6.25 6.251 6.25 16.423 0 22.675L3905 986.758a15.985 15.985 0 01-11.338 4.688zm.752-16.778v-.001.001zM3780.21 860.464l113.452 113.452 60.042-60.042-113.452-113.452-60.042 60.042zm-147.9-68.446c-3.98 0-7.993-.164-11.924-.485a8.5 8.5 0 01-7.78-9.164c.382-4.68 4.485-8.17 9.165-7.78 3.473.285 7.019.429 10.539.429 70.728 0 128.27-57.538 128.27-128.26s-57.542-128.26-128.27-128.26c-70.723 0-128.26 57.537-128.26 128.26 0 38.536 17.102 74.68 46.92 99.163a8.5 8.5 0 011.176 11.963c-2.98 3.628-8.336 4.155-11.962 1.176-33.768-27.725-53.134-68.658-53.134-112.302 0-80.097 65.163-145.26 145.26-145.26 80.102 0 145.27 65.163 145.27 145.26s-65.168 145.26-145.27 145.26zm160.923 39.905l-12.22 11.99m48.83-47.94l-12.2 11.97"/></svg>
