<svg version="1.1" id="Capa_1" xmlns="http://www.w3.org/2000/svg" x="0" y="0" viewBox="607.61 -1399.29 480.08 451.29" xml:space="preserve"><path fill="#ffbf13" d="M896.667-1191.667c-.334-1 0-30.666 0-30.666h80.666v108h-78.726V-1151l50.553.333 16.507-23L943.333-1193l-46.666 1.333z"/><path fill="#393939" d="M990.27-1287.98c14.96-11.32 24.7-29.21 24.7-49.37 0-34.15-27.79-61.94-61.94-61.94s-61.93 27.79-61.93 61.94c0 19.33 8.91 36.61 22.84 47.99-39.39 7.45-69.3 42.08-69.3 83.62v23.22c0 21.35 17.37 38.71 38.71 38.71h7.75v67.81h15.48v-29.1h38.71v29.1h15.48v-29.1H984v-123.87h-92.9v30.97h-15.49v15.48h65.81c6.4 0 11.61 5.21 11.61 11.62 0 6.4-5.21 11.61-11.61 11.61h-58.07c-12.8 0-23.22-10.42-23.22-23.23v-23.22c0-38.42 31.26-69.68 69.67-69.68h38.71c38.42 0 69.68 31.26 69.68 69.68v77.42c0 12.8-10.42 23.22-23.22 23.22v-123.87h-15.49V-1076h15.49v-13.61c21.34 0 38.71-17.37 38.71-38.71v-77.42c0-39.43-26.98-72.59-63.41-82.24zm-83.69 144.17h34.84c14.94 0 27.09-12.15 27.09-27.09s-12.15-27.1-27.09-27.1h-34.84v-15.48h61.93v92.9h-61.93v-23.23zm46.45-147.09c-25.62 0-46.45-20.84-46.45-46.45 0-25.62 20.83-46.46 46.45-46.46 25.62 0 46.45 20.84 46.45 46.46 0 25.61-20.83 46.45-46.45 46.45zm-257.389 182.903h-40v-40a8 8 0 00-16 0v48a8 8 0 008 8h48a8 8 0 000-16z"/><path fill="#ffbf13" d="M648.28-1307.33h175.415V-1200H648.28zm74.917 131.665h100.498V-1092H723.197z"/><path fill="#393939" d="M1060.62-1345.84c-.52-.18-1.04-.34-1.56-.5a36.484 36.484 0 00-3.42-.86 36.6 36.6 0 00-3.14-.5v16.19c10.95 2.22 19.19 11.9 19.19 23.51v81.67h-.03V-1076H623.64v-150.33h-.03V-1308c0-13.26 10.74-24 24-24H854v-16H647.61c-22.08.02-39.98 17.92-40 40v87.62l.03 168.38c.03 22.08 17.92 39.98 40 40h168v48h-112c-4.42 0-8 3.58-8 8s3.58 8 8 8h288c4.42 0 8-3.58 8-8s-3.58-8-8-8h-112v-48h168.02c4.48 0 8.78-.74 12.8-2.11.31-.11.62-.21.93-.33h.01c.92-.33 1.82-.7 2.7-1.1h.01c.88-.4 1.75-.83 2.59-1.3h.01c1.13-.61 2.23-1.28 3.29-2 .27-.18.54-.36.8-.55a39.91 39.91 0 005.33-4.55 39.41 39.41 0 004.47-5.41c.67-.96 1.29-1.96 1.87-2.98v-.01c3.3-5.81 5.18-12.51 5.19-19.66l.03-168.38V-1308c-.02-17.56-11.34-32.47-27.07-37.84zM863.64-964h-32v-48h32v48zm208-88c0 6.52-2.6 12.43-6.82 16.77-.6.62-1.24 1.2-1.9 1.75h-.01c-.59.49-1.21.95-1.84 1.38-.95.65-1.96 1.23-3.02 1.74a23.904 23.904 0 01-10.39 2.36H647.64c-13.25 0-24-10.74-24-24v-8h448v8z"/></svg>
