<svg version="1.1" id="Capa_1" xmlns="http://www.w3.org/2000/svg" x="0" y="0" viewBox="-1072.2 -565.494 496 496" xml:space="preserve"><path fill="#ffbf13" d="M-920.2-378.357v-67.137l-49.3-18.642V-479.5l15.5-22-1-36.5-29.2-21.5-21.3 10.006-13 40 22 30.494s0 20.5-1.5 20.5-42.2 5.006-42.2 5.006L-1051-433l2.5 51 128.3 3.643zm153.4 0v-67.137l-49.3-18.642V-479.5l15.5-22-1-36.5-29.2-21.5-21.3 10.006-13 40 22 30.494s0 20.5-1.5 20.5-42.2 5.006-42.2 5.006L-897.6-433l2.5 51 128.3 3.643z"/><path fill="#393939" d="M-712.2-189.494c-22.055 0-40-17.945-40-40 0-8.32 2.566-16.32 7.426-23.145l-13.035-9.28c-6.797 9.554-10.391 20.761-10.391 32.425 0 30.871 25.129 56 56 56 11.664 0 22.87-3.594 32.426-10.39l-9.281-13.036c-6.825 4.86-14.825 7.426-23.145 7.426zm0 0"/><path fill="#393939" d="M-648.2-389.494v-24c0-17.648-14.352-32-32-32v-32h-24v-16h16v-48h-48v48h16v16h-24v88h-16v-43.664a31.897 31.897 0 00-26.742-31.566l-21.258-3.547v-9.223h-.246c9.797-7.297 16.246-18.87 16.246-32v-16c0-22.055-17.945-40-40-40s-40 17.945-40 40v16c0 13.13 6.449 24.703 16.246 32h-.246v9.223l-21.258 3.547c-15.504 2.574-26.742 15.855-26.742 31.566v43.664h-8v-43.664a31.897 31.897 0 00-26.742-31.566l-21.258-3.547v-9.223h-.246c9.797-7.297 16.246-18.87 16.246-32v-16c0-22.055-17.945-40-40-40s-40 17.945-40 40v16c0 13.13 6.449 24.703 16.246 32h-.246v9.223l-21.258 3.547c-15.504 2.574-26.742 15.855-26.742 31.566v43.664h-16v320h496v-320h-72zm-72-136h16v16h-16v-16zm24 64v16h-32v-16h32zm45.832 195.266a71.436 71.436 0 017.87 18.992l1.243 4.887 17.055 3.406v18.89l-17.055 3.407-1.242 4.886a71.72 71.72 0 01-7.871 18.993l-2.574 4.328 9.644 14.488-13.351 13.352-14.49-9.649-4.327 2.578a71.44 71.44 0 01-18.992 7.871l-4.887 1.243-3.406 17.062h-18.89l-3.407-17.055-4.886-1.242a71.72 71.72 0 01-18.993-7.87l-4.328-2.575-14.488 9.644-13.352-13.35 9.649-14.49-2.578-4.328a71.436 71.436 0 01-7.871-18.992l-1.243-4.887-17.062-3.406v-18.89l17.055-3.407 1.242-4.886a71.72 71.72 0 017.87-18.993l2.575-4.328-9.644-14.488 13.35-13.352 14.49 9.65 4.328-2.579c1.519-.903 3.148-1.582 4.734-2.375v42.871l32 42.672 32-42.672v-2.594c5.09 6.824 8 15.188 8 23.93 0 8.32-2.566 16.32-7.426 23.144l13.035 9.282c6.797-9.563 10.39-20.77 10.39-32.434 0-18.312-9.128-35.406-24-45.824V-293.7c1.587.793 3.216 1.473 4.735 2.375l4.328 2.574 14.489-9.644 13.35 13.351-9.643 14.49 2.574 4.327zm-77.832-3.266h32v13.336l-16 21.328-16-21.328v-13.336zm32-16h-32v-144h32v144zm-160-240c0-13.23 10.77-24 24-24s24 10.77 24 24v16c0 13.23-10.77 24-24 24s-24-10.77-24-24v-16zm-32 92.336a15.951 15.951 0 0113.367-15.785l34.633-5.774v-15.586a39.994 39.994 0 0016 0v15.586l34.633 5.766a15.966 15.966 0 0113.367 15.793v43.664h-112v-43.664zm-120-92.336c0-13.23 10.77-24 24-24s24 10.77 24 24v16c0 13.23-10.77 24-24 24s-24-10.77-24-24v-16zm-32 92.336a15.951 15.951 0 0113.367-15.785l34.633-5.774v-15.586a39.994 39.994 0 0016 0v15.586l34.633 5.766a15.966 15.966 0 0113.367 15.793v43.664h-112v-43.664zm448 347.664h-464v-288h312v62.152c-2.88 1.13-5.711 2.36-8.457 3.786l-17.145-11.426-31.894 31.894 11.434 17.145a88.071 88.071 0 00-5.747 13.847l-20.191 4.051v45.11l20.19 4.05a86.708 86.708 0 005.748 13.848l-11.434 17.145 31.894 31.894 17.145-11.434a88.037 88.037 0 0013.848 5.747l4.058 20.191h45.11l4.05-20.19a86.705 86.705 0 0013.848-5.748l17.145 11.434 31.894-31.894-11.434-17.145a88.033 88.033 0 005.747-13.848l20.19-4.058v-45.11l-20.19-4.05a86.704 86.704 0 00-5.747-13.848l11.434-17.145-31.894-31.894-17.145 11.426c-2.746-1.426-5.578-2.664-8.457-3.785v-118.145c8.824 0 16 7.176 16 16v56c0 13.23 10.77 24 24 24h16v-16h-16c-4.414 0-8-3.594-8-8v-16h56v288zm0 0"/><path fill="#ffbf13" d="M-832.2-349.494h16v16h-16zm-32 0h16v16h-16zm-32 0h16v16h-16z"/><path fill="#393939" d="M-879.727-236.549l20.472-40.945h43.055v-16h-52.945l-11.528 23.055-26.886-47.055H-1040.2v16h123.359l37.114 64.945zm0 0"/><path fill="#393939" d="M-1040.2-285.494h120v16h-120zm0 32h120v16h-120z"/><path fill="#ffbf13" d="M-856.2-157.494h-16v40h-16v-64h-16v64h-16v-104h-16v104h-16v-64h-16v64h-16v-40h-16v40h-16v16h176v-16h-16v-40zm232 40h16v16h-16zm-32 0h16v16h-16zm-32 0h16v16h-16z"/></svg>
