<svg version="1.1" id="Capa_1" xmlns="http://www.w3.org/2000/svg" x="0" y="0" viewBox="1341.133 501 424.957 480" xml:space="preserve"><path fill="#ffbf13" d="M1742.667 637l16 13.656-145.534 154.347-28.8-2.336 2-24 152.936-143z"/><circle fill="#ffbf13" cx="1415.477" cy="642" r="25"/><circle fill="#ffbf13" cx="1440.477" cy="861.344" r="25"/><circle fill="#ffbf13" cx="1528.477" cy="906" r="25"/><circle fill="#ffbf13" cx="1634" cy="637.667" r="25"/><path fill="#393939" d="M1717.133 501h-368a8 8 0 00-8 8v464a8 8 0 008 8h312a8.04 8.04 0 005.656-2.344l56-56a7.998 7.998 0 001.6-2.344c.112-.248.176-.488.264-.744.23-.672.37-1.371.416-2.08 0-.168.096-.32.096-.488V733h-16.032v176h-48a8 8 0 00-8 8v48h-296V517h352v104h16V509a8 8 0 00-8-8zm-48 424h28.688l-28.688 28.688V925z"/><path fill="#393939" d="M1758.789 635.344c-9.878-9.442-25.435-9.442-35.312 0l-140 140a8 8 0 00-2.344 5.656v24a8 8 0 008 8h24a8 8 0 005.656-2.344l140-140c9.734-9.758 9.734-25.554 0-35.312zm-41.656 28.968L1729.82 677l-8.688 8.688L1708.445 673l8.688-8.688zM1609.82 797h-12.688v-12.688l100-100L1709.82 697l-100 100zm137.656-137.656l-6.344 6.344L1728.445 653l6.344-6.344a9.184 9.184 0 0112.688 0 9 9 0 010 12.688zm-276.869-68L1488.95 573l18.344 18.344 11.312-11.312-18.344-18.344 18.344-18.344-11.312-11.312-18.344 18.344-18.344-18.344-11.312 11.312 18.344 18.344-18.344 18.344zm-28.25 163.943l18.344-18.344-11.312-11.312-18.344 18.344-18.344-18.344-11.312 11.312 18.344 18.344-18.344 18.344 11.312 11.312 18.344-18.344 18.344 18.344 11.312-11.312zm234.987 71.401L1659 845.032l-18.344-18.344L1629.344 838l18.344 18.344-18.344 18.344L1640.656 886 1659 867.656 1677.344 886l11.312-11.312-18.344-18.344L1688.656 838zM1487.1 666h13.6v-16h-32a8 8 0 00-8 8v32h16v-11.2c34.703 44.743 32.205 107.959-5.92 149.824l11.849 10.768c44.34-48.668 46.244-122.503 4.472-173.392zm-25.967-32h100.688l-10.344 10.344 11.312 11.312 24-24a8 8 0 000-11.312l-24-24-11.312 11.312L1561.82 618h-100.688v16zm136 72h16v-32a8 8 0 00-8-8h-32v16h12.96a224.848 224.848 0 00-60.96 154.504V858h16v-21.496a209.024 209.024 0 0156-142.912V706z"/></svg>
