<svg version="1.1" id="Capa_1" xmlns="http://www.w3.org/2000/svg" x="0" y="0" viewBox="2703.39 510.78 540.343 540.45" xml:space="preserve"><path fill="#393939" d="M3243.733 925.04c0-14.915-12.092-27.012-27.006-27.02h-.007V600.83h18.01a9 9 0 009-9V555.8c-.03-24.85-20.17-44.99-45.03-45.02h-450.28c-24.86.03-45 20.17-45.03 45.02v36.03c0 4.97 4.03 9 9.01 9h18.01v297.19c-14.92 0-27.02 12.1-27.02 27.02s12.1 27.02 27.02 27.02h234.15v46.68c-12.41 4.39-19.85 17.07-17.63 30.04 2.23 12.97 13.47 22.45 26.63 22.45 13.16 0 24.4-9.48 26.63-22.45 2.22-12.97-5.22-25.65-17.62-30.04v-46.68h234.157c14.914-.008 27.006-12.105 27.006-27.02zm-495.313-90.06V600.83h450.28v297.19h-450.28v-63.04zm-27.02-252.16V555.8c0-14.92 12.1-27.01 27.02-27.01h450.28c14.93 0 27.02 12.09 27.02 27.01v27.02H2721.4zm252.16 450.29c-3.64 0-6.92-2.2-8.32-5.56a9.032 9.032 0 011.95-9.82 9.032 9.032 0 019.82-1.95 9.023 9.023 0 015.56 8.32c0 4.97-4.04 9.01-9.01 9.01zm243.153-99.07H2730.41c-4.97 0-9.01-4.03-9.01-9s4.04-9.01 9.01-9.01h486.303c4.97 0 9.01 4.04 9.01 9.01s-4.04 9-9.01 9z"/><path fill="#393939" d="M3081.63 618.84h-108.07c-4.97 0-9 4.04-9 9.01V862h-108.07v-9h-18.01v18c0 4.98 4.03 9.01 9 9.01h126.08c4.97 0 9.01-4.03 9.01-9.01V636.86h90.05v6.89h18.02v-15.9c0-4.97-4.04-9.01-9.01-9.01zm81.05 198.13h-18.01v-27.02c0-4.97-4.03-9-9.01-9h-99.06a9 9 0 00-9 9v27.02h-18.02c-4.97 0-9 4.03-9 9.01V871c0 4.98 4.03 9.01 9 9.01h54.04c4.97 0 9-4.03 9-9.01v-45.02c0-4.98-4.03-9.01-9-9.01h-18.01v-18.01h81.05v18.01h-18.01c-4.97 0-9.01 4.03-9.01 9.01V871c0 4.98 4.04 9.01 9.01 9.01h54.03c4.97 0 9.01-4.03 9.01-9.01v-45.02c0-4.98-4.04-9.01-9.01-9.01zm-108.07 18.01V862h-36.02v-27.02h36.02zm99.07 27.02h-36.03v-27.02h36.03V862zm-297.19-116.07v-19.02h-18.01v19.02h18.01z"/><path d="M2775.44 754h143.893v90H2775.44zm0-126.12h143.893v90H2775.44zm252.357 29.687h108.152v108.152h-108.152z" fill="#ffbf13"/></svg>
