<svg version="1.1" id="Capa_1" xmlns="http://www.w3.org/2000/svg" x="0" y="0" viewBox="-1132.848 -2095.96 472 496" xml:space="preserve"><path d="M-799.67-1799.67v28.67h-9v164h-152.18v-189h124v-3.67zm18.32-296.29v80h-48v30.14l-50.21-30.14h-45.79v-80zm-72 128v80h-29.57l-34.43 22.95v-22.95h-48v-80z" fill="#ffbf13"/><path fill="#393939" d="M-900.848-1815.96c0-13.23-10.77-24-24-24h-72v-40c0-6.031-2.312-11.488-6-15.71 13.215-8.556 22-23.403 22-40.29v-24c0-26.473-21.527-48-48-48s-48 21.527-48 48v24c0 16.055 7.953 30.266 20.098 38.984-3.328 8.106-6.02 16.473-7.984 25.016h-44.114c-13.23 0-24 10.77-24 24s10.77 24 24 24h8v72c0 15.688 9.16 29.152 22.336 35.703l-29.23 87.672a21.938 21.938 0 00-1.106 6.856c0 12 9.77 21.769 22.297 21.769 9.168 0 17.406-5.809 20.496-14.45l11.985-33.55h81.222v48h168v-160h16v-48H-902.32c.898-2.512 1.472-5.184 1.472-8zm-24-8c4.414 0 8 3.586 8 8s-3.586 8-8 8h-96c-4.414 0-8-3.586-8-8v-64c0-4.414 3.586-8 8-8s8 3.586 8 8v56h88zm-96 32h48v32h-80v-76.223c0-16.488 2.91-33 8.48-48.546a24.03 24.03 0 00-.48 4.769v64c0 13.23 10.77 24 24 24zm-40-168c0-17.648 14.352-32 32-32s32 14.352 32 32v24c0 17.648-14.351 32-32 32s-32-14.352-32-32v-24zm-48 120c-4.414 0-8-3.586-8-8s3.586-8 8-8h41.281c-.832 6.559-1.28 13.168-1.28 19.777v76.223c0 8.824 7.175 16 16 16h80v16h-88c-13.231 0-24-10.77-24-24v-88h-24zm77.633 128h58.367v16h-64.078l5.711-16zm-49.898 92.168c-.825 2.297-3.008 3.832-5.965 3.832a5.773 5.773 0 01-5.77-5.77c0-.605.106-1.246.29-1.824l29.542-88.629c.735.047 1.426.223 2.168.223h12.649l-32.914 92.168zm32.761-44.168l5.711-16h69.793v16h-75.504zm227.504 48h-136v-144h136v144zm16-160h-152v-16h152v16z"/><path fill="#393939" d="M-686.977-1986.448c11.024-8.801 18.13-22.336 18.13-37.512v-24c0-26.473-21.528-48-48-48s-48 21.527-48 48v24c0 18.36 10.374 34.336 25.558 42.398-4.848 3.81-9.024 8.532-12.168 14.036-9.88 17.285-16.207 35.992-19.246 55.558h-42.145c-13.23 0-24 10.77-24 24s10.77 24 24 24h40v48h16v216h96v-343.496c0-18.672-10.625-34.879-26.129-42.984zm-61.87-37.512v-24c0-17.648 14.35-32 32-32s32 14.352 32 32v24c0 17.648-14.352 32-32 32s-32-14.352-32-32zm8 70.863v41.137h-13.665a144.978 144.978 0 0113.664-41.137zm-80 65.137c0-4.414 3.585-8 8-8h88v-72c0-1.887.753-3.55 1.847-4.922a32.604 32.604 0 018.457-2.613c3.27 1.008 5.695 3.941 5.695 7.535v80c0 4.414-3.586 8-8 8h-96c-4.414 0-8-3.586-8-8zm104 24c13.23 0 24-10.77 24-24v-80c0-1.207-.184-2.375-.36-3.535 9.726 5.613 16.36 16.016 16.36 28.031v111.504h-80v-32h40zm-24 48h16v200h-16v-200zm32 200v-200h32v200h-32zm-120.001-448h16v16h-16v-16zm-32 0h16v16h-16v-16zm-32 0h16v16h-16v-16zm-40 128h16v16h-16v-16zm32 0h16v16h-16v-16z"/></svg>
