<svg version="1.1" id="Capa_1" xmlns="http://www.w3.org/2000/svg" x="0" y="0" viewBox="-905.232 501 480.167 480.168" xml:space="preserve"><path fill="#ffbf13" d="M-587.702 968.667v-182h-216.85l-29.104-29.105-67.01-.989v218.76z"/><path fill="#393939" d="M-432.809 501h-309.785a7.744 7.744 0 00-7.745 7.745v23.234h-23.234a7.744 7.744 0 00-7.745 7.744v240.084h-19.361l-20.91-27.883a7.761 7.761 0 00-6.196-3.096h-69.702a7.744 7.744 0 00-7.745 7.745v216.85a7.744 7.744 0 007.745 7.745h433.7c4.28 0 7.744-3.47 7.744-7.745v-23.234h23.234c4.28 0 7.745-3.47 7.745-7.745v-433.7A7.744 7.744 0 00-432.81 501zm-398.849 263.318l20.91 27.883a7.732 7.732 0 006.196 3.095h209.106v30.979H-866.51c-3.63 0-6.766 2.526-7.567 6.065l-15.667 70.524V764.318h58.085zm-56.174 201.36l27.535-123.914h264.85v123.914h-292.385zm416.3 0h-108.425V787.552a7.744 7.744 0 00-7.745-7.745h-178.126v-232.34h232.339v54.213a7.744 7.744 0 007.744 7.745h54.213v356.253zm-10.951-371.742H-518v-35.517l35.517 35.517zm41.93 340.764h-15.49V601.68a7.69 7.69 0 00-2.28-5.48l-61.941-61.942a7.69 7.69 0 00-5.48-2.28H-734.85V516.49h294.296V934.7zm0 0"/><path fill="#393939" d="M-626.425 934.7h15.489v15.489h-15.489zm-30.978 0h15.489v15.489h-15.489zm-30.979 0h15.489v15.489h-15.489z"/><path fill="#ffbf13" d="M-548.979 648.148a7.744 7.744 0 00-7.744-7.745h-10.967a84.464 84.464 0 00-7.139-17.41l8.092-8.093a7.731 7.731 0 000-10.95l-23.234-23.234a7.731 7.731 0 00-10.95 0l-8.094 8.091a84.462 84.462 0 00-17.41-7.139v-10.966a7.744 7.744 0 00-7.745-7.745h-30.978a7.744 7.744 0 00-7.745 7.745v10.966a84.46 84.46 0 00-17.41 7.14l-8.093-8.092a7.731 7.731 0 00-10.95 0l-23.235 23.233a7.731 7.731 0 000 10.951l8.092 8.094a84.46 84.46 0 00-7.14 17.41h-10.965a7.744 7.744 0 00-7.745 7.744v30.979a7.744 7.744 0 007.745 7.744h10.966a84.462 84.462 0 007.14 17.41l-8.093 8.093a7.731 7.731 0 000 10.951l23.234 23.234a7.731 7.731 0 0010.951 0l8.093-8.092a84.464 84.464 0 0017.41 7.14v10.966a7.744 7.744 0 007.745 7.745h30.978c4.28 0 7.745-3.47 7.745-7.745v-10.966a84.466 84.466 0 0017.41-7.14l8.093 8.092a7.731 7.731 0 0010.951 0l23.234-23.234a7.731 7.731 0 000-10.95l-8.092-8.094a84.466 84.466 0 007.14-17.41h10.966c4.28 0 7.744-3.47 7.744-7.744v-30.979zm-15.489 23.234h-9.302a7.74 7.74 0 00-7.589 6.202c-1.69 8.364-4.967 16.341-9.71 23.718a7.737 7.737 0 001.037 9.67l6.869 6.878-12.283 12.283-6.878-6.877a7.731 7.731 0 00-9.67-1.03c-7.366 4.744-15.343 8.018-23.718 9.711a7.754 7.754 0 00-6.202 7.589v9.302h-15.49v-9.302a7.747 7.747 0 00-6.202-7.589c-8.374-1.693-16.351-4.972-23.718-9.71a7.745 7.745 0 00-9.67 1.029l-6.877 6.877-12.283-12.283 6.877-6.877a7.749 7.749 0 001.039-9.67c-4.749-7.383-8.027-15.36-9.71-23.719a7.76 7.76 0 00-7.6-6.202h-9.302v-15.49h9.303a7.74 7.74 0 007.588-6.201c1.69-8.365 4.967-16.342 9.71-23.718a7.737 7.737 0 00-1.037-9.67l-6.868-6.878 12.283-12.283 6.877 6.877a7.725 7.725 0 009.67 1.029c7.367-4.744 15.344-8.017 23.718-9.71a7.754 7.754 0 006.203-7.589v-9.303h15.489v9.303a7.747 7.747 0 006.202 7.588c8.375 1.694 16.352 4.973 23.718 9.71a7.731 7.731 0 009.67-1.028l6.878-6.877 12.283 12.283-6.878 6.877a7.748 7.748 0 00-1.039 9.67c4.75 7.383 8.028 15.36 9.71 23.719a7.76 7.76 0 007.6 6.202h9.302v15.489zm0 0"/><path fill="#393939" d="M-649.659 609.425c-29.884 0-54.212 24.318-54.212 54.212 0 29.895 24.328 54.213 54.212 54.213s54.213-24.318 54.213-54.213c0-29.894-24.329-54.212-54.213-54.212zm0 92.936c-21.353 0-38.723-17.37-38.723-38.724 0-21.353 17.37-38.723 38.723-38.723s38.723 17.37 38.723 38.723c0 21.354-17.37 38.724-38.723 38.724zm100.68-.001v193.617c0 1.2.278 2.394.812 3.464l23.234 46.468c1.316 2.621 3.999 4.28 6.933 4.28s5.617-1.659 6.933-4.28l23.234-46.468a7.777 7.777 0 00.812-3.464V702.36c0-17.082-13.897-30.979-30.979-30.979s-30.979 13.897-30.979 30.979zm15.49 178.127V733.34h30.978v147.148h-30.978zM-518 925.13l-14.577-29.153h29.154L-518 925.13zm0-238.259c8.541 0 15.49 6.949 15.49 15.49v15.489h-30.98v-15.49c0-8.54 6.949-15.489 15.49-15.489zm0 0"/></svg>
