<svg version="1.1" id="Capa_1" xmlns="http://www.w3.org/2000/svg" x="0" y="0" viewBox="1873.23 436 608.04 608.043" xml:space="preserve"><path fill="#ffbf13" d="M2444.42 666.91c-22.99 55.49-77.15 91.68-137.22 91.68a148.8 148.8 0 01-89.11-29.77l-28.3 10.62c-3.19 1.2-6.78.55-9.35-1.69a9.28 9.28 0 01-2.97-9.02l7.63-34.35a147.076 147.076 0 01-26.42-84.31c0-60.07 36.19-114.23 91.69-137.22 55.5-22.99 119.38-10.28 161.86 32.2 42.47 42.48 55.18 106.35 32.19 161.86z"/><path fill="#393939" d="M2130.835 869.981h-34.043l-30.935-23.206v-25.66a64.981 64.981 0 0027.105-43.96h10.025c10.256 0 18.565-8.31 18.565-18.565v-9.282a18.567 18.567 0 00-15.072-18.214l12.352-12.354a9.286 9.286 0 002.72-6.563v-9.282c-.042-35.868-29.11-64.937-64.978-64.979h-55.696c-35.868.042-64.936 29.11-64.978 64.979v9.282c0 2.46.98 4.823 2.72 6.563l12.352 12.354a18.567 18.567 0 00-15.072 18.214v9.282c0 10.256 8.31 18.565 18.565 18.565h10.026a64.981 64.981 0 0027.105 43.96v25.66l-30.936 23.206h-34.042c-15.38 0-27.848 12.468-27.848 27.848v111.391c0 5.124 4.158 9.283 9.282 9.283H2149.4c5.124 0 9.283-4.159 9.283-9.283V897.83c0-15.38-12.469-27.849-27.848-27.849zm-27.848-111.39h-9.283v-9.283h9.283v9.282zm-148.522-55.696c.031-25.619 20.795-46.382 46.413-46.413h55.696c25.618.03 46.382 20.794 46.413 46.413v5.44l-9.283 9.282v-5.44c0-4.26-2.894-7.97-7.028-9.004l-74.26-18.565a9.25 9.25 0 00-6.407.695l-37.13 18.565a9.3 9.3 0 00-5.131 8.31v5.439l-9.283-9.283v-5.44zm0 46.413h9.283v9.282h-9.283v-9.282zm27.848 18.565v-49.96l28.923-14.463 63.903 15.98v48.443c0 25.635-20.777 46.413-46.413 46.413-25.635 0-46.413-20.778-46.413-46.413zm24.138 90.97a9.303 9.303 0 003.71-7.427v-21.351a64.303 64.303 0 0037.13 0v21.351a9.303 9.303 0 003.71 7.428l25.837 19.368-48.112 27.492-48.111-27.492 25.836-19.368zm74.157 38.593l-11.585 57.944a9.28 9.28 0 01-9.107 7.427h-62.38a9.28 9.28 0 01-9.107-7.427l-11.585-57.902 47.276 27.008a9.277 9.277 0 009.212 0l47.276-27.05zm59.51 102.502h-222.783V897.829c0-5.124 4.159-9.282 9.283-9.282h29.515l14.111 70.434c2.624 13 14.034 22.356 27.293 22.391h62.379c13.258-.035 24.668-9.39 27.292-22.39l14.111-70.435h29.516c5.124 0 9.282 4.158 9.282 9.282v102.109zm138.163-464.918a47.177 47.177 0 0143.887-7.754 45.037 45.037 0 0128.434 27.207c7.916 21.152-.303 44.945-19.587 56.7a28.852 28.852 0 00-14.528 25.128c0 5.123-4.159 9.282-9.283 9.282a9.456 9.456 0 01-6.762-3.028 9.477 9.477 0 01-2.52-6.968 46.976 46.976 0 0123.557-40.345 27.916 27.916 0 0012.999-29.813 27.312 27.312 0 00-20.017-21.023 29.738 29.738 0 00-7.342-.931 27.919 27.919 0 00-26.185 18.565h-19.212a46.156 46.156 0 0116.559-27.02zm0 0"/><path fill="#ffbf13" d="M2362.9 814.286h18.565v92.826H2362.9zm-37.131 18.565h18.565v74.261h-18.565zm-37.13 18.565h18.565v55.696h-18.565zm-37.13 18.565h18.565v37.13h-18.565z"/><path fill="#393939" d="M2270.074 962.807h148.522v18.565h-148.522zm-55.696 0h37.13v18.565h-37.13zm167.087 37.131h37.13v18.565h-37.13zm-167.087 0H2362.9v18.565h-148.522zm176.37-222.783h-148.522c-15.38 0-27.848 12.468-27.848 27.848v111.391c0 15.38 12.468 27.848 27.848 27.848h148.522c15.38 0 27.847-12.468 27.847-27.848v-111.39c0-15.38-12.468-27.849-27.847-27.849zm9.282 139.24c0 5.123-4.158 9.282-9.282 9.282h-148.522c-5.124 0-9.283-4.159-9.283-9.283v-111.39c0-5.125 4.159-9.283 9.283-9.283h148.522c5.124 0 9.282 4.158 9.282 9.282v111.391zm0 0"/><circle fill="#393939" cx="2307.074" cy="679" r="11.926"/></svg>
